<?xml version="1.0" encoding="UTF-8" standalone="no"?><!DOCTYPE svg PUBLIC "-//W3C//DTD SVG 1.1//EN" "http://www.w3.org/Graphics/SVG/1.1/DTD/svg11.dtd"><svg width="10%" height="10%" viewBox="0 0 100 100" version="1.1" xmlns="http://www.w3.org/2000/svg" xmlns:xlink="http://www.w3.org/1999/xlink" xml:space="preserve" xmlns:serif="http://www.serif.com/" style="fill-rule:evenodd;clip-rule:evenodd;stroke-linejoin:round;stroke-miterlimit:2;"><path d="M88.409,30.767l0,38.466c0,2.654 -2.154,4.808 -4.808,4.808l-77.056,0c-2.654,0 -4.808,-2.154 -4.808,-4.808l-0,-38.466c-0,-2.654 2.154,-4.808 4.808,-4.808l77.056,-0c2.654,-0 4.808,2.154 4.808,4.808Z" style="fill:#fff;"/><path d="M88.409,30.767l0,38.466c0,2.654 -2.154,4.808 -4.808,4.808l-77.056,0c-2.654,0 -4.808,-2.154 -4.808,-4.808l-0,-38.466c-0,-2.654 2.154,-4.808 4.808,-4.808l77.056,-0c2.654,-0 4.808,2.154 4.808,4.808Zm-4.166,-0c-0,-0.354 -0.288,-0.642 -0.642,-0.642l-77.056,0c-0.354,0 -0.642,0.288 -0.642,0.642l0,38.466c0,0.354 0.288,0.642 0.642,0.642l77.056,-0c0.354,-0 0.642,-0.288 0.642,-0.642l-0,-38.466Z" style="fill:#fff;"/><path d="M24.921,32.823l0,34.392c0,0.984 -0.799,1.784 -1.784,1.784l-14.272,-0c-0.984,-0 -1.784,-0.8 -1.784,-1.784l0,-34.392c0,-0.985 0.8,-1.784 1.784,-1.784l14.272,-0c0.985,-0 1.784,0.799 1.784,1.784Z" style="fill:#2bc139;"/><path d="M43.922,32.815l-0,34.407c-0,0.981 -0.796,1.777 -1.777,1.777l-14.213,-0c-0.98,-0 -1.776,-0.796 -1.776,-1.777l-0,-34.407c-0,-0.98 0.796,-1.776 1.776,-1.776l14.213,-0c0.981,-0 1.777,0.796 1.777,1.776Z" style="fill:#2bc139;"/><path d="M63.903,32.922l0,34.194c0,1.039 -0.844,1.883 -1.883,1.883l-15.064,-0c-1.039,-0 -1.883,-0.844 -1.883,-1.883l0,-34.194c0,-1.039 0.844,-1.883 1.883,-1.883l15.064,-0c1.039,-0 1.883,0.844 1.883,1.883Z" style="fill:#2bc139;"/><path d="M82.975,32.823l-0,34.392c-0,0.984 -0.8,1.784 -1.784,1.784l-14.272,-0c-0.985,-0 -1.784,-0.8 -1.784,-1.784l-0,-34.392c-0,-0.985 0.799,-1.784 1.784,-1.784l14.272,-0c0.984,-0 1.784,0.799 1.784,1.784Z" style="fill:#2bc139;"/><path d="M98.263,39.656l0,20.688c0,1.78 -1.445,3.224 -3.224,3.224l-6.449,0c-1.78,0 -3.225,-1.444 -3.225,-3.224l0,-20.688c0,-1.78 1.445,-3.224 3.225,-3.224l6.449,-0c1.779,-0 3.224,1.444 3.224,3.224Z" style="fill:#fff;"/></svg>