<?xml version="1.0" encoding="UTF-8" standalone="no"?>
<!DOCTYPE svg PUBLIC "-//W3C//DTD SVG 1.1//EN" "http://www.w3.org/Graphics/SVG/1.1/DTD/svg11.dtd">
<svg width="6%" height="6%" viewBox="0 0 100 100" version="1.1" xmlns="http://www.w3.org/2000/svg" xmlns:xlink="http://www.w3.org/1999/xlink" xml:space="preserve" xmlns:serif="http://www.serif.com/" style="fill-rule:evenodd;clip-rule:evenodd;stroke-linejoin:round;stroke-miterlimit:2;">
    <g transform="matrix(1.15504,0,0,1.15504,-69.5126,-102.171)">
        <path d="M80.674,152.344C72.543,144.23 64.294,130.261 61.874,120.508C60.325,114.269 61.815,107.491 65.925,102.071C68.65,98.478 73.588,95.253 78.196,94.057C80.968,93.337 86.51,93.391 89.218,94.164C93.562,95.404 96.85,97.385 99.789,100.532C104.654,105.742 106.772,112.784 105.429,119.287C103.49,128.672 95.704,142.517 87.347,151.439C86.293,152.563 84.978,153.843 84.423,154.282L83.415,155.08L80.674,152.344ZM87.925,127.753C89.902,126.857 92.164,124.6 93.078,122.61C93.612,121.446 93.805,120.544 93.889,118.809C94.026,116.003 93.559,114.225 92.159,112.221C88.413,106.86 80.715,106.172 76.101,110.786C75.448,111.439 74.521,112.77 74.042,113.744C73.231,115.391 73.169,115.703 73.169,118.168C73.169,120.593 73.24,120.969 74.003,122.579C75.287,125.289 77.583,127.326 80.346,128.206C82.357,128.847 85.991,128.63 87.925,127.753Z" style="fill:rgb(0,173,219);"/>
    </g>
    <g transform="matrix(1.15504,0,0,1.15504,-69.5126,-51.818)">
        <path d="M131.325,121.114C126.603,116.057 121.998,107.688 121.223,102.755C120.291,96.816 124.394,90.93 130.573,89.342C137.344,87.602 144.312,92.248 145.541,99.322C146.183,103.012 144.355,108.412 140.28,114.866C138.429,117.797 133.972,123.068 133.345,123.068C133.238,123.068 132.329,122.189 131.325,121.114ZM135.156,108.47C136.725,108.075 138.66,106.211 139.124,104.649C139.884,102.09 139.258,99.776 137.369,98.159C135.497,96.557 133.129,96.187 130.981,97.161C128.556,98.26 127.434,100.004 127.419,102.695C127.403,105.41 128.877,107.486 131.48,108.416C132.69,108.848 133.601,108.861 135.156,108.47Z" style="fill:rgb(0,173,219);"/>
    </g>
    <g transform="matrix(1,0,0,1,-6.66042,-0.919897)">
        <circle cx="35.355" cy="81.537" r="2.409" style="fill:rgb(0,173,219);"/>
    </g>
    <g transform="matrix(1,0,0,1,-1.8433,3.89723)">
        <circle cx="35.355" cy="81.537" r="2.409" style="fill:rgb(0,173,219);"/>
    </g>
    <g transform="matrix(1,0,0,1,4.7206,1.48866)">
        <circle cx="35.355" cy="81.537" r="2.409" style="fill:rgb(0,173,219);"/>
    </g>
    <g transform="matrix(1,0,0,1,10.4773,-0.919897)">
        <circle cx="35.355" cy="81.537" r="2.409" style="fill:rgb(0,173,219);"/>
    </g>
    <g transform="matrix(1,0,0,1,16.1696,-2.0316)">
        <circle cx="35.355" cy="81.537" r="2.409" style="fill:rgb(0,173,219);"/>
    </g>
    <g transform="matrix(1,0,0,1,21.9515,0.376962)">
        <circle cx="35.355" cy="81.537" r="2.409" style="fill:rgb(0,173,219);"/>
    </g>
    <g transform="matrix(1,0,0,1,25.511,5.19408)">
        <circle cx="35.355" cy="81.537" r="2.409" style="fill:rgb(0,173,219);"/>
    </g>
    <g transform="matrix(1,0,0,1,29.4571,10.0112)">
        <circle cx="35.355" cy="81.537" r="2.409" style="fill:rgb(0,173,219);"/>
    </g>
    <g transform="matrix(1,0,0,1,34.2743,13.6106)">
        <circle cx="35.355" cy="81.537" r="2.409" style="fill:rgb(0,173,219);"/>
    </g>
    <g transform="matrix(1,0,0,1,40.2195,14.8283)">
        <circle cx="35.355" cy="81.537" r="2.409" style="fill:rgb(0,173,219);"/>
    </g>
    <g transform="matrix(1,0,0,1,45.78,12.4198)">
        <circle cx="35.355" cy="81.537" r="2.409" style="fill:rgb(0,173,219);"/>
    </g>
</svg>
