<?xml version="1.0" encoding="UTF-8" standalone="no"?>
<!DOCTYPE svg PUBLIC "-//W3C//DTD SVG 1.1//EN" "http://www.w3.org/Graphics/SVG/1.1/DTD/svg11.dtd">
<svg width="6%" height="6%" viewBox="0 0 100 100" version="1.1" xmlns="http://www.w3.org/2000/svg" xmlns:xlink="http://www.w3.org/1999/xlink" xml:space="preserve" xmlns:serif="http://www.serif.com/" style="fill-rule:evenodd;clip-rule:evenodd;stroke-linejoin:round;stroke-miterlimit:2;">
    <g id="path6" transform="matrix(-0.952494,0,0,0.952494,151.314,-119.648)">
        <path d="M90.09,200.743L61.582,172.233L61.582,167.869L78.251,167.869L78.251,182.685L93.067,182.685L93.067,197.502L107.884,197.502L107.884,212.319L122.701,212.319L122.701,229.252L118.599,229.252L90.09,200.743Z" style="fill:rgb(0,173,219);fill-rule:nonzero;"/>
    </g>
    <g transform="matrix(-0.952494,0,0,0.952494,151.314,-119.648)">
        <path d="M141.618,224.774C139.634,224.284 138.097,222.938 137.517,221.18C137.346,220.663 135.51,213.218 133.436,204.636C131.363,196.055 129.605,188.972 129.53,188.898C129.455,188.823 127.769,189.55 125.783,190.515C122.483,192.117 122.172,192.328 122.183,192.967C122.189,193.351 122.351,196.09 122.541,199.054C122.761,202.467 122.801,204.851 122.65,205.556C122.217,207.591 120.241,209.352 117.922,209.772C115.537,210.204 112.675,208.305 111.992,205.838C111.783,205.081 111.427,200.982 111.163,196.275C110.727,188.52 110.726,187.968 111.149,186.861C111.395,186.215 111.957,185.338 112.396,184.913C112.841,184.482 116.027,182.789 119.601,181.083C119.601,181.083 124.02,178.999 126.008,178.026C115.464,176.899 124.744,161.365 126.309,151.733C126.666,149.533 129.366,146.968 132.419,146.924C135.394,146.882 139.695,148.494 139.966,154.954C140.17,159.796 140.614,187.051 140.614,187.051L144.49,202.911C146.621,211.633 148.365,219.015 148.364,219.315C148.355,222.613 144.735,225.543 141.618,224.774Z" style="fill:rgb(0,173,219);"/>
    </g>
    <g transform="matrix(-0.952494,0,0,0.952494,148.833,-118.467)">
        <path d="M125.856,143.981C121.352,142.082 118.996,137.511 120.166,132.943C121.143,129.132 124.046,126.442 127.82,125.85C132.035,125.189 135.961,127.22 137.838,131.034C138.627,132.635 138.708,133.023 138.708,135.187C138.708,137.213 138.602,137.799 138.011,139.061C137.064,141.081 135.731,142.483 133.752,143.542C132.286,144.326 131.817,144.439 129.712,144.516C127.683,144.591 127.113,144.511 125.856,143.981Z" style="fill:rgb(0,173,219);"/>
    </g>
    <g transform="matrix(1.28613,0,0,1.28613,-5.16585,1.26319)">
        <path d="M16.243,25.232L16.243,36.234C16.243,38.032 14.782,39.492 12.984,39.492C11.186,39.492 9.725,38.032 9.725,36.234L9.725,25.232C9.725,23.434 11.186,21.974 12.984,21.974C14.782,21.974 16.243,23.434 16.243,25.232Z" style="fill:rgb(0,173,219);"/>
    </g>
    <g transform="matrix(0.763518,1.03497,-1.03497,0.763518,39.8826,-7.94946)">
        <path d="M16.243,25.232L16.243,36.234C16.243,38.032 14.782,39.492 12.984,39.492C11.186,39.492 9.725,38.032 9.725,36.234L9.725,25.232C9.725,23.434 11.186,21.974 12.984,21.974C14.782,21.974 16.243,23.434 16.243,25.232Z" style="fill:rgb(0,173,219);"/>
    </g>
    <g transform="matrix(-0.276306,-1.25609,1.25609,-0.276306,9.24229,57.7741)">
        <path d="M16.243,25.232L16.243,36.234C16.243,38.032 14.782,39.492 12.984,39.492C11.186,39.492 9.725,38.032 9.725,36.234L9.725,25.232C9.725,23.434 11.186,21.974 12.984,21.974C14.782,21.974 16.243,23.434 16.243,25.232Z" style="fill:rgb(48,120,139);"/>
    </g>
    <g transform="matrix(0.84677,-0.968039,0.968039,0.84677,-9.43328,15.7567)">
        <path d="M16.243,25.232L16.243,36.234C16.243,38.032 14.782,39.492 12.984,39.492C11.186,39.492 9.725,38.032 9.725,36.234L9.725,25.232C9.725,23.434 11.186,21.974 12.984,21.974C14.782,21.974 16.243,23.434 16.243,25.232Z" style="fill:rgb(48,120,139);"/>
    </g>
</svg>
