<?xml version="1.0" encoding="UTF-8" standalone="no"?>
<!DOCTYPE svg PUBLIC "-//W3C//DTD SVG 1.1//EN" "http://www.w3.org/Graphics/SVG/1.1/DTD/svg11.dtd">
<svg width="6%" height="6%" viewBox="0 0 100 100" version="1.1" xmlns="http://www.w3.org/2000/svg" xmlns:xlink="http://www.w3.org/1999/xlink" xml:space="preserve" xmlns:serif="http://www.serif.com/" style="fill-rule:evenodd;clip-rule:evenodd;stroke-linejoin:round;stroke-miterlimit:2;">
    <g transform="matrix(1.63143,0,0,1.63143,-37.0432,-293.664)">
        <path d="M47.948,240.023C40.758,238.893 35.393,235.584 31.84,230.089C26.357,221.609 26.923,210.293 33.249,201.885C35.208,199.282 39.399,194.968 41.455,193.44C45.282,190.594 45.931,187.795 43.693,183.792C42.207,181.135 42.9,180.623 46.765,181.525C50.254,182.338 52.907,183.811 55.164,186.187C58.209,189.393 59.424,192.674 59.431,197.71C59.438,202.941 60.975,206.22 64.201,207.888C65.137,208.372 65.13,208.399 64.476,206.92C63.644,205.04 63.54,202.682 64.181,200.23C64.831,197.746 65.321,196.906 66.122,196.906C66.933,196.906 70.98,199.996 72.798,202.002C77.072,206.719 79.155,212.708 78.506,218.415C77.261,229.374 70.309,237.228 59.7,239.661C57.621,240.137 50.144,240.368 47.948,240.023ZM50.168,237.004C51.462,237.207 55.869,237.071 57.094,236.79C63.346,235.357 67.443,230.728 68.177,224.269C68.559,220.906 67.332,217.376 64.813,214.597C63.742,213.414 61.356,211.593 60.879,211.593C60.407,211.593 60.118,212.088 59.735,213.552C59.357,214.997 59.418,216.387 59.908,217.495C60.294,218.366 60.298,218.351 59.747,218.065C57.845,217.082 56.94,215.15 56.936,212.067C56.931,209.099 56.215,207.165 54.421,205.276C53.091,203.876 51.527,203.008 49.471,202.528C47.193,201.997 46.784,202.298 47.66,203.865C48.979,206.224 48.597,207.873 46.341,209.55C45.13,210.451 42.66,212.993 41.505,214.528C37.777,219.483 37.443,226.152 40.675,231.149C42.769,234.388 45.93,236.338 50.168,237.004Z" style="fill:rgb(0,173,219);"/>
    </g>
</svg>
