<?xml version="1.0" encoding="UTF-8" standalone="no"?>
<!DOCTYPE svg PUBLIC "-//W3C//DTD SVG 1.1//EN" "http://www.w3.org/Graphics/SVG/1.1/DTD/svg11.dtd">
<svg width="6%" height="6%" viewBox="0 0 100 100" version="1.1" xmlns="http://www.w3.org/2000/svg" xmlns:xlink="http://www.w3.org/1999/xlink" xml:space="preserve" xmlns:serif="http://www.serif.com/" style="fill-rule:evenodd;clip-rule:evenodd;stroke-linejoin:round;stroke-miterlimit:2;">
    <g transform="matrix(2.28893,0,0,2.28893,-303.421,-490.964)">
        <path d="M145.538,256.9C144.054,256.209 142.92,255.02 142.226,253.426C140.903,250.385 141.408,249.571 144.899,249.12C146.244,248.945 147.895,248.507 149.04,248.019C151.512,246.966 152.159,246.971 152.816,248.05C154.045,250.072 153.636,253.674 151.96,255.583C150.263,257.516 147.9,258 145.538,256.9ZM141.4,246.554C140.44,246.01 137.789,242.127 137.15,240.329C136.345,238.062 135.996,234.334 136.359,231.85C136.913,228.048 138.293,225.924 140.672,225.211C144.314,224.12 148.902,228.561 150.959,235.169C151.469,236.807 151.515,237.366 151.355,239.994C151.161,243.186 150.788,244.31 149.65,245.138C147.728,246.535 142.845,247.373 141.4,246.554Z" style="fill:rgb(0,173,219);"/>
    </g>
    <g transform="matrix(2.28893,0,0,2.28893,-303.421,-490.964)">
        <path d="M159.042,247.355C155.858,246.182 154.205,241.228 156.009,238.261C156.663,237.186 157.225,237.183 159.877,238.245C161.013,238.7 162.826,239.182 163.906,239.316C167.118,239.715 167.66,240.279 167.002,242.54C165.909,246.302 162.23,248.528 159.042,247.355ZM162.614,236.732C160.603,236.196 158.902,235.302 158.291,234.46C157.911,233.937 157.709,233.003 157.517,230.889C157.206,227.46 157.478,225.762 158.795,222.909C160.968,218.201 164.146,215.181 166.905,215.199C167.993,215.206 169.708,215.983 170.473,216.815C172.665,219.2 173.283,225.85 171.734,230.396C171.148,232.116 168.269,236.295 167.339,236.776C166.42,237.251 164.499,237.233 162.614,236.732Z" style="fill:rgb(0,173,219);"/>
    </g>
</svg>
